<svg width="187" height="56" viewBox="0 0 187 56" fill="none" xmlns="http://www.w3.org/2000/svg">
<path d="M179.862 0.326172H7.16586C3.59201 0.326172 0.694824 3.25391 0.694824 6.86547V49.0802C0.694824 52.6918 3.59201 55.6195 7.16586 55.6195H179.862C183.435 55.6195 186.333 52.6918 186.333 49.0802V6.86547C186.333 3.25391 183.435 0.326172 179.862 0.326172Z" fill="url(#paint0_linear_57_6749)"/>
<path d="M179.552 1.58105H7.4789C4.47483 1.58105 2.03955 4.04203 2.03955 7.0778V48.8694C2.03955 51.9052 4.47483 54.3662 7.4789 54.3662H179.552C182.556 54.3662 184.992 51.9052 184.992 48.8694V7.0778C184.992 4.04203 182.556 1.58105 179.552 1.58105Z" fill="black"/>
<path d="M15.0959 10.6631C14.7394 11.0309 14.5112 11.5322 14.5112 12.1097V43.0584C14.5112 43.2319 14.532 43.3977 14.5716 43.5559L31.6195 26.8941L15.0959 10.6631Z" fill="#05D4FB"/>
<path d="M37.4967 21.1485L17.665 10.277C16.7616 9.78148 15.728 10.0159 15.0962 10.6639L31.6198 26.895L37.4967 21.1485Z" fill="#06EF79"/>
<path d="M44.1123 24.7755L37.4961 21.1484L31.6191 26.8949L38.7446 33.8973L44.0444 31.1337C46.6151 29.7919 46.6528 26.1706 44.1123 24.7755Z" fill="#FCCF02"/>
<path d="M14.5718 43.5573C14.883 44.84 16.3673 45.57 17.6272 44.9124L38.7471 33.8979L31.6216 26.8955L14.5736 43.5573H14.5718Z" fill="#F9374A"/>
<path fill-rule="evenodd" clip-rule="evenodd" d="M57.1381 33.0869C57.1381 28.0628 61.3383 23.9727 66.3364 23.9727C69.0994 23.9727 71.0647 25.0629 72.549 26.4828L70.8025 28.2382C69.7425 27.2375 68.3035 26.4618 66.3345 26.4618C62.685 26.4618 59.8314 29.416 59.8314 33.0831C59.8314 36.7501 62.685 39.7081 66.3326 39.7081C68.6996 39.7081 70.0462 38.7533 70.91 37.8841C71.6173 37.1732 72.0813 36.1516 72.2604 34.7508H66.3382V32.2673H74.6746C74.7632 32.7114 74.8085 33.2451 74.8085 33.8226C74.8085 35.6866 74.2992 38.0004 72.6622 39.6471C71.0685 41.3148 69.0353 42.203 66.3364 42.203C61.3365 42.203 57.1362 38.1167 57.1362 33.0888L57.14 33.085L57.1381 33.0869ZM81.5473 30.4643C78.3184 30.4643 75.6836 32.9325 75.6836 36.3308C75.6836 39.7291 78.3165 42.1973 81.5473 42.1973C84.7781 42.1973 87.4072 39.7081 87.4072 36.3289C87.4072 32.9497 84.7762 30.4624 81.5473 30.4643ZM81.5473 39.8892C79.7801 39.8892 78.2524 38.4235 78.2524 36.3327C78.2524 34.2419 79.7782 32.7762 81.5473 32.7762C83.3164 32.7762 84.8403 34.219 84.8403 36.3327C84.8403 38.4464 83.3164 39.8892 81.5473 39.8892ZM94.3328 30.4643C91.1039 30.4643 88.4729 32.9325 88.4729 36.3308C88.4729 39.7291 91.1039 42.1973 94.3328 42.1973C97.5617 42.1973 100.193 39.7081 100.193 36.3289C100.193 32.9497 97.5636 30.4624 94.3328 30.4643ZM94.3328 39.8892C92.5656 39.8892 91.0379 38.4235 91.0379 36.3327C91.0379 34.2419 92.5637 32.7762 94.3328 32.7762C96.1019 32.7762 97.6277 34.219 97.6277 36.3327C97.6277 38.4464 96.1 39.8892 94.3328 39.8892ZM110.025 30.8207V31.7756H109.936C109.363 31.0837 108.256 30.4624 106.864 30.4624C103.944 30.4624 101.264 33.043 101.264 36.3556C101.264 39.6681 103.942 42.2011 106.864 42.2011C108.256 42.2011 109.361 41.5798 109.936 40.8689H110.025V41.7113C110.025 43.9565 108.831 45.1572 106.907 45.1572C105.336 45.1572 104.363 44.0232 103.965 43.0702L101.73 44.0041C102.371 45.5594 104.076 47.471 106.905 47.471C109.91 47.471 112.454 45.6909 112.454 41.3568V30.8169H110.025V30.8207ZM107.084 39.8892C105.317 39.8892 103.831 38.3987 103.831 36.3556C103.831 34.3124 105.315 32.7781 107.084 32.7781C108.853 32.7781 110.202 34.2876 110.202 36.3556C110.204 38.3987 108.833 39.8892 107.084 39.8892ZM114.227 24.594H116.794V41.8428H114.227V24.594ZM123.829 39.8892C122.524 39.8892 121.594 39.2869 121.001 38.1129L128.808 34.8651L128.538 34.198C128.053 32.8887 126.571 30.4643 123.54 30.4643C120.509 30.4643 118.033 32.8429 118.033 36.3327C118.033 39.6205 120.509 42.1992 123.829 42.1992C126.507 42.1992 128.055 40.5563 128.695 39.5976L126.703 38.2653C126.037 39.245 125.13 39.8911 123.827 39.8892H123.829ZM123.629 32.7305C124.645 32.7305 125.507 33.2432 125.796 33.9751L120.575 36.1535C120.511 33.8855 122.324 32.7305 123.631 32.7305H123.629Z" fill="white"/>
<path fill-rule="evenodd" clip-rule="evenodd" d="M140.677 24.5967H134.432V41.8455H137.039V35.3119H140.679C143.568 35.3119 146.41 33.2459 146.41 29.9524C146.41 26.6589 143.572 24.5967 140.682 24.5967H140.677ZM140.745 32.9104H137.039V26.9963H140.745C142.693 26.9963 143.804 28.5934 143.804 29.9543C143.804 31.3151 142.693 32.9123 140.745 32.9123V32.9104ZM150.452 41.8455V24.5967H147.846V41.8455H150.452ZM162.161 41.815V35.2033C162.161 32.1404 159.843 30.4327 156.853 30.4327C154.969 30.4327 153.015 31.2541 152.204 33.0743L154.519 34.0273C155.013 33.0743 155.933 32.7617 156.902 32.7617C158.249 32.7617 159.62 33.5603 159.641 34.9822V35.1613C159.169 34.8945 158.16 34.4943 156.921 34.4943C154.428 34.4943 151.889 35.8475 151.889 38.3767C151.889 40.6867 153.936 42.1714 156.227 42.1714C157.981 42.1714 158.947 41.3957 159.552 40.4865H159.641V41.8188H162.161V41.815ZM156.542 39.8862C155.688 39.8862 154.496 39.465 154.496 38.4243C154.496 37.0921 155.98 36.5794 157.261 36.5794C158.408 36.5794 158.945 36.8233 159.645 37.1569C159.445 38.7064 158.119 39.869 156.542 39.8881V39.8862ZM171.327 30.8101L168.338 38.2871H168.249L165.148 30.8101H162.34L166.991 41.2623L164.337 47.0754H167.057L174.224 30.8101H171.329H171.327Z" fill="white"/>
<path d="M98.8123 18.527C97.5751 18.527 96.5302 18.1001 95.706 17.2576C94.8875 16.44 94.431 15.3117 94.4518 14.1586C94.4518 12.9292 94.8743 11.8886 95.706 11.0633C96.5283 10.2209 97.5713 9.79395 98.8104 9.79395C100.05 9.79395 101.079 10.2209 101.917 11.0633C102.748 11.9153 103.171 12.9559 103.171 14.1586C103.158 15.3917 102.735 16.4323 101.917 17.2538C101.094 18.102 100.051 18.527 98.8123 18.527ZM61.9741 18.527C60.7633 18.527 59.7127 18.1058 58.8527 17.2748C58.0002 16.4457 57.5664 15.3993 57.5664 14.1624C57.5664 12.9254 58.0002 11.879 58.8527 11.05C59.6957 10.2171 60.7463 9.79776 61.9741 9.79776C62.5739 9.79776 63.1585 9.91593 63.7168 10.1542C64.2656 10.3867 64.7126 10.7031 65.0427 11.09L65.1238 11.1872L64.1996 12.083L64.1034 11.9724C63.581 11.3587 62.8832 11.0595 61.959 11.0595C61.1329 11.0595 60.4143 11.3492 59.8202 11.921C59.2242 12.4966 58.9206 13.2513 58.9206 14.1643C58.9206 15.0772 59.2242 15.832 59.8202 16.4076C60.4143 16.9794 61.1329 17.2691 61.959 17.2691C62.8398 17.2691 63.5791 16.9794 64.1562 16.4076C64.4976 16.0702 64.7089 15.5995 64.7843 15.0029H61.8213V13.7431H66.0574L66.0744 13.8574C66.1045 14.069 66.1366 14.2882 66.1366 14.4902C66.1366 15.6528 65.782 16.5924 65.0785 17.2862C64.2807 18.1077 63.2359 18.5251 61.9741 18.5251V18.527ZM110.955 18.3478H109.648L105.647 12.0258L105.681 13.1637V18.344H104.374V9.9731H105.864L105.906 10.0379L109.668 15.9921L109.634 14.8561V9.9731H110.955V18.3459V18.3478ZM88.9973 18.3478H87.6733V11.2348H85.378V9.97501H91.2889V11.2348H88.9936V18.3478H88.9973ZM84.3011 18.3478H82.9809V9.97501H84.3011V18.3478ZM76.8833 18.3478H75.563V11.2348H73.2677V9.97501H79.1786V11.2348H76.8833V18.3478ZM72.4322 18.3345H67.3701V9.97501H72.4322V11.2348H68.6941V13.5315H72.0682V14.778H68.6941V17.0747H72.4322V18.3345ZM96.6754 16.3904C97.2658 16.9736 97.9824 17.2652 98.8142 17.2652C99.6459 17.2652 100.37 16.9794 100.953 16.3904C101.532 15.8186 101.826 15.0658 101.826 14.1605C101.826 13.2551 101.532 12.5004 100.957 11.9305C100.366 11.3473 99.6478 11.0557 98.818 11.0557C97.9881 11.0557 97.262 11.3416 96.683 11.9305C96.104 12.5023 95.8097 13.2551 95.8097 14.1605C95.8097 15.0658 96.1002 15.8205 96.6754 16.3904Z" fill="white"/>
<defs>
<linearGradient id="paint0_linear_57_6749" x1="0.694824" y1="27.9738" x2="186.334" y2="27.9738" gradientUnits="userSpaceOnUse">
<stop stop-color="#CCCCCC"/>
<stop offset="0.51" stop-color="#B3B3B3"/>
<stop offset="1" stop-color="#E6E6E6"/>
</linearGradient>
</defs>
</svg>
