<svg width="186" height="56" viewBox="0 0 186 56" fill="none" xmlns="http://www.w3.org/2000/svg">
<path d="M178.961 0H6.7841C3.03735 0 0 3.06939 0 6.85568V48.8436C0 52.6299 3.03735 55.6993 6.7841 55.6993H178.961C182.708 55.6993 185.745 52.6299 185.745 48.8436V6.85568C185.745 3.06939 182.708 0 178.961 0Z" fill="url(#paint0_linear_57_6720)"/>
<path d="M178.646 1.26562H7.09932C3.92546 1.26562 1.35254 3.86569 1.35254 7.07304V48.6303C1.35254 51.8376 3.92546 54.4377 7.09932 54.4377H178.646C181.82 54.4377 184.393 51.8376 184.393 48.6303V7.07304C184.393 3.86569 181.82 1.26562 178.646 1.26562Z" fill="black"/>
<path d="M38.775 33.6433C38.3054 34.7144 37.7509 35.6998 37.1059 36.6051C36.2289 37.8402 35.5103 38.696 34.9577 39.1705C34.0995 39.9501 33.181 40.3484 32.1965 40.3713C31.4893 40.3713 30.6368 40.1731 29.6447 39.769C28.6489 39.3688 27.7341 39.1686 26.8986 39.1686C26.0631 39.1686 25.0805 39.3668 24.0752 39.769C23.0681 40.1712 22.2552 40.3827 21.6347 40.4018C20.6898 40.4418 19.7505 40.032 18.8113 39.1686C18.2115 38.6521 17.4627 37.7678 16.5631 36.5136C15.5993 35.1738 14.8072 33.6223 14.1867 31.8517C13.5228 29.94 13.189 28.0875 13.189 26.2959C13.189 24.2432 13.6378 22.4707 14.5375 20.9878C15.2448 19.7947 16.1859 18.8551 17.3628 18.1651C18.5397 17.4752 19.8128 17.1226 21.1839 17.0997C21.9346 17.0997 22.9172 17.3284 24.1393 17.7782C25.3577 18.2299 26.1404 18.4586 26.4837 18.4586C26.7402 18.4586 27.6097 18.1899 29.0827 17.6562C30.4764 17.1607 31.6515 16.9568 32.6152 17.0368C35.2255 17.2446 37.187 18.2604 38.4921 20.092C36.1572 21.4891 35.003 23.4465 35.0256 25.9566C35.0463 27.9121 35.7649 29.5379 37.1757 30.8301C37.815 31.4305 38.5299 31.8936 39.3239 32.2215C39.1523 32.7151 38.9693 33.1878 38.7769 33.6414L38.775 33.6433ZM32.7887 10.3774C32.7887 11.9098 32.221 13.3412 31.0913 14.6658C29.7277 16.2401 28.0774 17.1493 26.2894 17.0063C26.2668 16.8233 26.2536 16.6289 26.2536 16.425C26.2536 14.9536 26.9024 13.3793 28.0529 12.0928C28.6281 11.441 29.3599 10.8997 30.2464 10.467C31.1309 10.042 31.9683 9.80565 32.7548 9.76562C32.7774 9.96956 32.7869 10.1754 32.7869 10.3793L32.7887 10.3774Z" fill="white"/>
<path d="M70.3638 41.6163H67.3178L65.6487 36.4378H59.8472L58.2573 41.6163H55.2905L61.0373 23.9844H64.5868L70.3619 41.6163H70.3638ZM65.1451 34.265L63.6363 29.6603C63.476 29.1895 63.178 28.0822 62.7366 26.3382H62.6838C62.5084 27.0873 62.2255 28.1965 61.8351 29.6603L60.3527 34.265H65.147H65.1451Z" fill="white"/>
<path d="M85.1445 35.1047C85.1445 37.266 84.5523 38.9757 83.3698 40.2317C82.3098 41.3486 80.9933 41.907 79.4223 41.907C77.7267 41.907 76.5083 41.3047 75.7671 40.1021H75.7143V46.7996H72.8532V33.0901C72.8532 31.7312 72.8173 30.336 72.7476 28.9047H75.2635L75.4239 30.9193H75.4767C76.431 29.4002 77.8776 28.6436 79.8202 28.6436C81.3385 28.6436 82.6059 29.2363 83.6206 30.4218C84.6372 31.6092 85.1445 33.1702 85.1445 35.1047ZM82.2306 35.2076C82.2306 33.9707 81.9496 32.9491 81.3819 32.1467C80.7632 31.31 79.9334 30.8907 78.8923 30.8907C78.1869 30.8907 77.5457 31.1232 76.9723 31.5844C76.3989 32.0476 76.0217 32.6537 75.8463 33.4027C75.7577 33.7534 75.7143 34.0393 75.7143 34.2642V36.3836C75.7143 37.308 76.001 38.0894 76.5762 38.726C77.1496 39.3626 77.8965 39.6809 78.815 39.6809C79.8919 39.6809 80.7312 39.2711 81.3309 38.4515C81.9326 37.632 82.2325 36.5494 82.2325 35.2076H82.2306Z" fill="white"/>
<path d="M99.9517 35.1047C99.9517 37.266 99.3594 38.9757 98.175 40.2317C97.1169 41.3486 95.8005 41.907 94.2294 41.907C92.5338 41.907 91.3155 41.3047 90.5742 40.1021H90.5214V46.7996H87.6603V33.0901C87.6603 31.7312 87.6245 30.336 87.5547 28.9047H90.0707L90.231 30.9193H90.2838C91.2362 29.4002 92.6847 28.6436 94.6274 28.6436C96.1456 28.6436 97.413 29.2363 98.4296 30.4218C99.4424 31.6092 99.9517 33.1702 99.9517 35.1047ZM97.0377 35.2076C97.0377 33.9707 96.7548 32.9491 96.189 32.1467C95.5704 31.31 94.7424 30.8907 93.6994 30.8907C92.9922 30.8907 92.3528 31.1232 91.7775 31.5844C91.2042 32.0476 90.8289 32.6537 90.6535 33.4027C90.5667 33.7534 90.5214 34.0393 90.5214 34.2642V36.3836C90.5214 37.308 90.8081 38.0894 91.3796 38.726C91.9529 39.3626 92.6998 39.6809 93.6202 39.6809C94.6971 39.6809 95.5364 39.2711 96.1362 38.4515C96.7378 37.632 97.0377 36.5494 97.0377 35.2076Z" fill="white"/>
<path d="M116.507 36.6708C116.507 38.1707 115.979 39.3905 114.921 40.3321C113.758 41.3613 112.139 41.8759 110.057 41.8759C108.135 41.8759 106.596 41.51 105.431 40.7781L106.093 38.4242C107.349 39.1733 108.726 39.5506 110.227 39.5506C111.304 39.5506 112.143 39.3086 112.745 38.8302C113.345 38.3499 113.644 37.7076 113.644 36.9033C113.644 36.1886 113.397 35.5844 112.903 35.0964C112.411 34.6066 111.589 34.153 110.44 33.7337C107.315 32.5825 105.753 30.8957 105.753 28.6772C105.753 27.2287 106.3 26.0394 107.396 25.115C108.488 24.1887 109.946 23.7256 111.768 23.7256C113.392 23.7256 114.742 24.0058 115.819 24.5623L115.104 26.8647C114.097 26.3234 112.96 26.0547 111.687 26.0547C110.68 26.0547 109.895 26.3005 109.331 26.7865C108.854 27.223 108.616 27.7528 108.616 28.3837C108.616 29.0813 108.888 29.6569 109.437 30.1105C109.914 30.5298 110.778 30.9815 112.034 31.4713C113.569 32.0812 114.699 32.796 115.425 33.6155C116.147 34.4313 116.509 35.4529 116.509 36.6727L116.507 36.6708Z" fill="white"/>
<path d="M125.966 31.0225H122.812V37.1958C122.812 38.7663 123.367 39.5497 124.481 39.5497C124.993 39.5497 125.417 39.5059 125.753 39.4182L125.832 41.5624C125.268 41.7701 124.527 41.8749 123.608 41.8749C122.478 41.8749 121.596 41.5338 120.958 40.8553C120.325 40.1748 120.004 39.0313 120.004 37.4284V31.0206H118.125V28.9012H120.004V26.574L122.814 25.7373V28.9031H125.968V31.0263L125.966 31.0225Z" fill="white"/>
<path d="M140.191 35.1562C140.191 37.1098 139.625 38.7146 138.496 39.9687C137.311 41.2609 135.738 41.9051 133.779 41.9051C131.819 41.9051 130.386 41.2857 129.263 40.0487C128.141 38.8118 127.581 37.2489 127.581 35.3658C127.581 33.4827 128.158 31.7826 129.316 30.5266C130.47 29.2706 132.03 28.6436 133.99 28.6436C135.949 28.6436 137.4 29.263 138.547 30.5019C139.644 31.7045 140.191 33.2559 140.191 35.1562ZM137.224 35.2477C137.224 34.0755 136.972 33.0692 136.457 32.2305C135.857 31.2166 134.999 30.7096 133.888 30.7096C132.777 30.7096 131.864 31.2166 131.264 32.2305C130.751 33.0711 130.497 34.0927 130.497 35.301C130.497 36.5094 130.75 37.4795 131.264 38.3162C131.883 39.3302 132.747 39.8372 133.862 39.8372C134.976 39.8372 135.812 39.3207 136.43 38.2895C136.958 37.4357 137.223 36.4179 137.223 35.2477H137.224Z" fill="white"/>
<path d="M149.489 31.3842C149.206 31.3327 148.904 31.306 148.587 31.306C147.58 31.306 146.803 31.6815 146.256 32.4324C145.779 33.0957 145.541 33.9324 145.541 34.9426V41.6134H142.682L142.709 32.9032C142.709 31.4375 142.673 30.1034 142.601 28.9007H145.093L145.198 31.3327H145.277C145.579 30.496 146.056 29.8232 146.707 29.3181C147.344 28.8645 148.033 28.6377 148.774 28.6377C149.038 28.6377 149.278 28.6568 149.489 28.6892V31.3823V31.3842Z" fill="white"/>
<path d="M162.28 34.6561C162.28 35.163 162.246 35.5881 162.176 35.9368H153.594C153.628 37.1929 154.043 38.1535 154.839 38.8167C155.562 39.4095 156.497 39.7049 157.646 39.7049C158.917 39.7049 160.075 39.5048 161.118 39.1026L161.567 41.0638C160.348 41.588 158.911 41.8491 157.251 41.8491C155.256 41.8491 153.689 41.2697 152.548 40.109C151.41 38.9501 150.839 37.393 150.839 35.4394C150.839 33.4858 151.369 31.9248 152.431 30.6517C153.542 29.2927 155.043 28.6123 156.933 28.6123C158.822 28.6123 160.194 29.2927 161.146 30.6517C161.902 31.7323 162.281 33.0665 162.281 34.6522L162.28 34.6561ZM159.552 33.9242C159.571 33.0875 159.385 32.3632 158.998 31.7533C158.504 30.9681 157.742 30.5754 156.718 30.5754C155.782 30.5754 155.022 30.9585 154.441 31.7266C153.964 32.3365 153.681 33.0703 153.594 33.9242H159.552Z" fill="white"/>
<path d="M64.3489 13.9042C64.3489 15.4175 63.8887 16.5554 62.972 17.3216C62.1214 18.0268 60.9144 18.3813 59.349 18.3813C58.5738 18.3813 57.9099 18.347 57.3535 18.2802V10.0123C58.0778 9.896 58.8605 9.83691 59.7035 9.83691C61.1935 9.83691 62.3176 10.1571 63.0758 10.7975C63.9245 11.5218 64.3507 12.5567 64.3507 13.9042H64.3489ZM62.9098 13.9423C62.9098 12.9608 62.6476 12.2098 62.1214 11.6857C61.5952 11.1615 60.8276 10.9004 59.8167 10.9004C59.3867 10.9004 59.0208 10.929 58.7171 10.9881V17.2739C58.885 17.2987 59.1924 17.312 59.6394 17.312C60.6843 17.312 61.4896 17.0261 62.0573 16.4524C62.625 15.8788 62.9117 15.044 62.9117 13.9461L62.9098 13.9423Z" fill="white"/>
<path d="M71.9757 15.222C71.9757 16.154 71.706 16.9183 71.1666 17.5167C70.6007 18.1323 69.8539 18.4392 68.9184 18.4392C67.9829 18.4392 67.3002 18.1457 66.7645 17.5529C66.2308 16.9621 65.9648 16.2188 65.9648 15.3211C65.9648 14.4234 66.2402 13.6134 66.7909 13.0149C67.3435 12.4164 68.0848 12.1172 69.0202 12.1172C69.9557 12.1172 70.6441 12.4107 71.193 13.0015C71.7135 13.5752 71.9757 14.3147 71.9757 15.2201V15.222ZM70.5611 15.2658C70.5611 14.7074 70.4385 14.2271 70.1952 13.8268C69.9086 13.3427 69.5012 13.1026 68.9712 13.1026C68.4412 13.1026 68.0074 13.3446 67.7208 13.8268C67.4756 14.2271 67.3549 14.7131 67.3549 15.2906C67.3549 15.8681 67.4775 16.3293 67.7208 16.7296C68.0169 17.2137 68.428 17.4538 68.958 17.4538C69.488 17.4538 69.8878 17.208 70.182 16.7162C70.4348 16.3084 70.5611 15.8262 70.5611 15.2658Z" fill="white"/>
<path d="M82.2023 12.2441L80.2823 18.305H79.0318L78.2359 15.6729C78.0341 15.0154 77.87 14.3635 77.7418 13.7155H77.7173C77.5984 14.3807 77.4344 15.0325 77.2231 15.6729L76.3782 18.305H75.1145L73.3096 12.2441H74.7109L75.405 15.1259C75.5728 15.8063 75.7105 16.4563 75.8218 17.0719H75.8463C75.9481 16.5649 76.116 15.9207 76.3536 15.1393L77.225 12.246H78.3359L79.1695 15.0764C79.3713 15.7663 79.5354 16.4315 79.6618 17.0719H79.6995C79.7919 16.4487 79.9315 15.7835 80.1163 15.0764L80.8613 12.246H82.2004L82.2023 12.2441Z" fill="white"/>
<path d="M89.2745 18.3029H87.9109V14.8321C87.9109 13.7629 87.4997 13.2273 86.6736 13.2273C86.2681 13.2273 85.9419 13.3741 85.6873 13.6676C85.4364 13.9611 85.3082 14.3099 85.3082 14.7063V18.301H83.9445V13.9745C83.9445 13.4427 83.9276 12.8652 83.8955 12.2401H85.095L85.1592 13.1873H85.1969C85.3553 12.8938 85.5929 12.6498 85.9041 12.4554C86.2738 12.2286 86.6887 12.1143 87.1414 12.1143C87.7147 12.1143 88.19 12.2972 88.5691 12.6632C89.0406 13.1111 89.2764 13.782 89.2764 14.672V18.3029H89.2745Z" fill="white"/>
<path d="M93.0374 18.3026H91.6738V9.46094H93.0374V18.3026Z" fill="white"/>
<path d="M101.07 15.222C101.07 16.154 100.801 16.9183 100.261 17.5167C99.6955 18.1323 98.9467 18.4392 98.0131 18.4392C97.0795 18.4392 96.393 18.1457 95.8593 17.5529C95.3255 16.9621 95.0596 16.2188 95.0596 15.3211C95.0596 14.4234 95.3349 13.6134 95.8857 13.0149C96.4383 12.4164 97.1795 12.1172 98.1131 12.1172C99.0467 12.1172 99.737 12.4107 100.288 13.0015C100.808 13.5752 101.07 14.3147 101.07 15.2201V15.222ZM99.654 15.2658C99.654 14.7074 99.5314 14.2271 99.2881 13.8268C99.0033 13.3427 98.594 13.1026 98.0659 13.1026C97.5378 13.1026 97.1003 13.3446 96.8155 13.8268C96.5703 14.2271 96.4496 14.7131 96.4496 15.2906C96.4496 15.8681 96.5722 16.3293 96.8155 16.7296C97.1116 17.2137 97.5227 17.4538 98.0527 17.4538C98.5827 17.4538 98.9807 17.208 99.2749 16.7162C99.5295 16.3084 99.654 15.8262 99.654 15.2658Z" fill="white"/>
<path d="M107.671 18.3039H106.445L106.344 17.6063H106.306C105.887 18.1628 105.289 18.4411 104.514 18.4411C103.935 18.4411 103.465 18.2581 103.113 17.8922C102.792 17.5606 102.632 17.147 102.632 16.6571C102.632 15.9157 102.945 15.3516 103.573 14.9609C104.201 14.5701 105.084 14.3776 106.219 14.3872V14.2747C106.219 13.4761 105.795 13.0778 104.944 13.0778C104.339 13.0778 103.805 13.2284 103.345 13.5257L103.068 12.6413C103.637 12.2925 104.342 12.1172 105.172 12.1172C106.775 12.1172 107.581 12.952 107.581 14.6235V16.8554C107.581 17.4615 107.611 17.9437 107.669 18.3001L107.671 18.3039ZM106.255 16.2207V15.2868C104.75 15.262 103.997 15.668 103.997 16.5085C103.997 16.8249 104.084 17.0612 104.259 17.2194C104.435 17.3776 104.659 17.4557 104.925 17.4557C105.225 17.4557 105.504 17.3623 105.759 17.1756C106.015 16.9888 106.172 16.7505 106.232 16.4589C106.247 16.3941 106.255 16.3141 106.255 16.2226V16.2207Z" fill="white"/>
<path d="M115.425 18.3036H114.214L114.15 17.3297H114.112C113.726 18.0711 113.067 18.4409 112.141 18.4409C111.402 18.4409 110.785 18.155 110.299 17.5813C109.812 17.0076 109.567 16.2643 109.567 15.3494C109.567 14.3679 109.831 13.575 110.363 12.967C110.878 12.4009 111.508 12.1188 112.256 12.1188C113.081 12.1188 113.658 12.3933 113.986 12.9422H114.012V9.46387H115.378V16.6721C115.378 17.263 115.393 17.8062 115.427 18.3055L115.425 18.3036ZM114.01 15.7478V14.7376C114.01 14.5623 113.997 14.4212 113.973 14.3126C113.895 13.9886 113.731 13.716 113.479 13.4968C113.224 13.2777 112.918 13.1671 112.566 13.1671C112.056 13.1671 111.659 13.3672 111.366 13.7656C111.076 14.1658 110.929 14.6766 110.929 15.2999C110.929 15.9231 111.068 16.3844 111.347 16.7598C111.643 17.1582 112.041 17.3583 112.539 17.3583C112.986 17.3583 113.345 17.1925 113.618 16.8589C113.88 16.5521 114.01 16.1823 114.01 15.7497V15.7478Z" fill="white"/>
<path d="M127.092 15.222C127.092 16.154 126.822 16.9183 126.283 17.5167C125.717 18.1323 124.97 18.4392 124.035 18.4392C123.099 18.4392 122.418 18.1457 121.881 17.5529C121.347 16.9621 121.081 16.2188 121.081 15.3211C121.081 14.4234 121.356 13.6134 121.907 13.0149C122.46 12.4164 123.201 12.1172 124.136 12.1172C125.072 12.1172 125.76 12.4107 126.307 13.0015C126.828 13.5752 127.09 14.3147 127.09 15.2201L127.092 15.222ZM125.677 15.2658C125.677 14.7074 125.555 14.2271 125.311 13.8268C125.023 13.3427 124.617 13.1026 124.087 13.1026C123.557 13.1026 123.124 13.3446 122.837 13.8268C122.592 14.2271 122.471 14.7131 122.471 15.2906C122.471 15.8681 122.594 16.3293 122.837 16.7296C123.133 17.2137 123.544 17.4538 124.074 17.4538C124.604 17.4538 125.006 17.208 125.298 16.7162C125.549 16.3084 125.677 15.8262 125.677 15.2658Z" fill="white"/>
<path d="M134.427 18.3029H133.063V14.8321C133.063 13.7629 132.652 13.2273 131.826 13.2273C131.421 13.2273 131.094 13.3741 130.841 13.6676C130.589 13.9611 130.462 14.3099 130.462 14.7063V18.301H129.097V13.9745C129.097 13.4427 129.082 12.8652 129.048 12.2401H130.245L130.31 13.1873H130.347C130.508 12.8938 130.745 12.6498 131.055 12.4554C131.426 12.2286 131.839 12.1143 132.292 12.1143C132.863 12.1143 133.34 12.2972 133.718 12.6632C134.191 13.1111 134.425 13.782 134.425 14.672V18.3029H134.427Z" fill="white"/>
<path d="M143.608 13.2522H142.105V16.1969C142.105 16.9459 142.37 17.3195 142.9 17.3195C143.146 17.3195 143.347 17.2985 143.508 17.2566L143.544 18.2782C143.274 18.3792 142.919 18.4287 142.484 18.4287C141.944 18.4287 141.526 18.2667 141.222 17.9427C140.916 17.6187 140.765 17.0736 140.765 16.3093V13.2541H139.868V12.2458H140.765V11.1347L142.103 10.7363V12.2439H143.606V13.2541L143.608 13.2522Z" fill="white"/>
<path d="M150.832 18.3026H149.466V14.8567C149.466 13.7703 149.055 13.2271 148.231 13.2271C147.599 13.2271 147.165 13.5416 146.93 14.1724C146.89 14.3039 146.866 14.4659 146.866 14.6565V18.3007H145.502V9.46094H146.866V13.1127H146.892C147.322 12.4476 147.937 12.1159 148.735 12.1159C149.3 12.1159 149.766 12.2989 150.138 12.6648C150.6 13.1204 150.832 13.8008 150.832 14.6966V18.3007V18.3026Z" fill="white"/>
<path d="M158.281 14.9874C158.281 15.2294 158.262 15.4314 158.23 15.5973H154.139C154.158 16.1957 154.352 16.6531 154.732 16.9695C155.079 17.2516 155.524 17.3946 156.071 17.3946C156.676 17.3946 157.229 17.2993 157.725 17.1087L157.938 18.0445C157.355 18.2942 156.67 18.4181 155.878 18.4181C154.928 18.4181 154.179 18.1417 153.638 17.589C153.093 17.0362 152.825 16.2948 152.825 15.3628C152.825 14.4308 153.076 13.6875 153.583 13.0814C154.111 12.4334 154.826 12.1094 155.727 12.1094C156.629 12.1094 157.28 12.4334 157.734 13.0814C158.1 13.596 158.281 14.2326 158.281 14.9874ZM156.98 14.6386C156.991 14.2383 156.9 13.8933 156.716 13.6036C156.478 13.2301 156.118 13.0414 155.629 13.0414C155.184 13.0414 154.82 13.2244 154.543 13.5903C154.317 13.8819 154.183 14.2307 154.137 14.6386H156.978H156.98Z" fill="white"/>
<defs>
<linearGradient id="paint0_linear_57_6720" x1="0" y1="27.8497" x2="185.745" y2="27.8497" gradientUnits="userSpaceOnUse">
<stop stop-color="#CCCCCC"/>
<stop offset="0.51" stop-color="#B3B3B3"/>
<stop offset="1" stop-color="#E6E6E6"/>
</linearGradient>
</defs>
</svg>
